<svg width="497px" height="282px" viewBox="0 0 497 282" version="1.1" xmlns="http://www.w3.org/2000/svg" xmlns:xlink="http://www.w3.org/1999/xlink">
    <g id="Page-1" stroke="none" stroke-width="1" fill="none" fill-rule="evenodd">
        <g id="Artboard-Copy-2" transform="translate(-128.000000, -107.000000)" fill="">
            <g id="Group" transform="translate(123.000000, 107.000000)">
                <path d="M59.2376254,45.1944778 C69.0797346,45.1944778 76.9421083,48.3259304 82.8247491,54.5888355 C88.70739,60.8517407 91.6487091,69.2304922 91.6487091,79.72509 L91.6487091,131.859544 L62.4617646,131.859544 L62.4617646,83.9567827 C62.4617646,80.2328932 61.3022066,77.2142866 58.9830881,74.9009604 C56.6639695,72.5876342 53.6943676,71.4309724 50.0742824,71.4309724 C46.4541971,71.4309724 43.5128754,72.5876342 41.2503224,74.9009604 C38.9877694,77.2142866 37.8564916,80.2328932 37.8564916,83.9567827 L37.8564916,131.859544 L8.66954714,131.859544 L8.66954714,47.2256903 L35.3111186,47.2256903 L35.3111186,54.1656663 C41.6462684,48.1848748 49.6217707,45.1944778 59.2376254,45.1944778 Z M125.327176,0 C130.304794,0 134.547083,1.66446493 138.054042,4.99339736 C141.561001,8.32232979 143.314479,12.4129643 143.314479,17.2653061 C143.314479,22.0048019 141.561001,26.0390147 138.054042,29.3679472 C134.547083,32.6968796 130.304794,34.3613445 125.327176,34.3613445 C120.349559,34.3613445 116.135551,32.7250892 112.685157,29.452581 C109.234763,26.1800729 107.509565,22.1176479 107.509565,17.2653061 C107.509565,12.4129643 109.234763,8.32232979 112.685157,4.99339736 C116.135551,1.66446493 120.349559,0 125.327176,0 Z M140.09034,47.2256903 L140.09034,131.859544 L110.903396,131.859544 L110.903396,47.2256903 L140.09034,47.2256903 Z M202.107294,45.1944778 C210.818126,45.1944778 218.454245,47.2256903 225.015652,51.2881152 C231.577059,55.3505402 236.61124,60.8799528 240.118199,67.8763505 L219.924906,83.2797119 C215.060414,75.7190868 209.234339,71.9387755 202.446678,71.9387755 C197.355931,71.9387755 193.283334,73.5750309 190.228887,76.847539 C187.174439,80.1200472 185.647215,84.3517398 185.647215,89.542617 C185.647215,94.7334943 187.174439,98.9651869 190.228887,102.237695 C193.283334,105.510203 197.355931,107.146459 202.446678,107.146459 C209.234339,107.146459 215.060414,103.422569 219.924906,95.9747899 L240.118199,111.208884 C236.61124,118.205281 231.577059,123.734694 225.015652,127.797119 C218.454245,131.859544 210.818126,133.890756 202.107294,133.890756 C189.097609,133.890756 178.124225,129.630851 169.187136,121.111044 C160.250048,112.591237 155.781505,102.068427 155.781505,89.542617 C155.781505,77.0168067 160.250048,66.4939967 169.187136,57.9741897 C178.124225,49.4543826 189.097609,45.1944778 202.107294,45.1944778 Z M334.715928,85.3109244 C334.715928,90.3889556 334.093725,95.1848731 332.849321,99.6986795 L278.548029,99.6986795 C281.715606,106.130852 288.050755,109.346939 297.553482,109.346939 C305.133038,109.346939 312.5429,107.146459 319.783073,102.745498 L330.303948,122.54982 C320.235585,130.110445 308.979378,133.890756 296.535332,133.890756 C282.620626,133.890756 271.19473,129.687276 262.257642,121.280312 C253.320553,112.873348 248.85201,102.294117 248.85201,89.542617 C248.85201,77.0168067 253.207427,66.4939967 261.918259,57.9741897 C270.62909,49.4543826 281.376223,45.1944778 294.159651,45.1944778 C306.377442,45.1944778 316.191268,49.0876351 323.601133,56.8739496 C331.010997,64.6602641 334.715928,74.1392557 334.715928,85.3109244 Z M292.97181,68.0456182 C289.351725,68.0456182 286.155866,69.1458583 283.384238,71.3463385 C280.612611,73.5468187 278.661158,76.6782713 277.52988,80.7406963 L307.056208,80.7406963 C306.943079,76.9039607 305.528984,73.8289324 302.813919,71.5156062 C300.098855,69.2022801 296.818152,68.0456182 292.97181,68.0456182 Z M398.429798,45.8715486 C401.484246,45.8715486 404.255873,46.32293 406.744683,47.2256903 L406.744683,72.9543818 L399.78733,72.9543818 C393.112797,72.9543818 388.078614,74.562425 384.684783,77.7785114 C381.290953,80.9945978 379.594037,86.1572629 379.594037,93.2665066 L379.594037,131.859544 L350.407093,131.859544 L350.407093,47.2256903 L377.048664,47.2256903 L377.048664,56.1968788 C382.478793,49.3133245 389.605838,45.8715486 398.429798,45.8715486 Z M463.649712,236.97479 C450.413773,236.97479 439.779769,232.799519 431.747703,224.44898 L445.492718,206.67587 C451.26223,211.528212 457.257997,213.954382 463.480021,213.954382 C467.439489,213.954382 469.419225,212.882354 469.419225,210.738295 C469.419225,210.061224 469.19297,209.440575 468.740459,208.876351 C468.287947,208.312126 467.694027,207.860744 466.958697,207.522209 C466.223368,207.183673 465.120373,206.732292 463.649712,206.168067 L455.165136,202.782713 C446.680559,199.397359 440.430255,195.786315 436.414221,191.94958 C432.398187,188.112844 430.390171,182.865545 430.390171,176.207683 C430.390171,167.518608 433.670873,160.663266 440.23228,155.641657 C446.793687,150.620047 455.221699,148.109244 465.516319,148.109244 C481.580452,148.109244 493.741678,153.52581 502,164.358944 L488.424677,181.62425 C481.184504,174.627852 473.378693,171.129652 465.007245,171.129652 C460.029627,171.129652 457.540817,172.370948 457.540817,174.853541 C457.540817,176.320529 459.181169,177.731092 462.461872,179.085234 L471.964598,182.978391 C480.336046,186.363745 486.529787,190.087635 490.545821,194.15006 C494.561855,198.212485 496.569871,203.57263 496.569871,210.230492 C496.569871,218.581032 493.571986,225.12605 487.576219,229.865546 C481.580452,234.605042 473.60495,236.97479 463.649712,236.97479 Z M369.30652,174.176471 C368.288371,174.176471 364.724849,174.289317 358.615953,174.515006 L358.615953,150.140456 C364.272337,148.786315 369.985286,148.109244 375.754799,148.109244 C387.746335,148.109244 396.966241,150.986795 403.414519,156.741897 C409.862798,162.496999 413.086937,171.07323 413.086937,182.470588 L413.086937,210.39976 L425.983494,210.39976 L425.983494,234.77431 L413.086937,234.77431 L413.086937,255.086435 L383.899993,255.086435 L383.899993,234.77431 L361.161326,234.77431 L361.161326,210.39976 L383.899993,210.39976 L383.899993,185.348139 C383.899993,181.285714 382.796998,178.408163 380.591008,176.715486 C378.385018,175.022809 374.623521,174.176471 369.30652,174.176471 Z M262.575846,234.77431 L262.575846,189.579832 C262.575846,177.166868 266.450468,167.151861 274.199716,159.534814 C281.948964,151.917767 291.875919,148.109244 303.980581,148.109244 C316.085243,148.109244 326.040481,151.917767 333.846292,159.534814 C341.652102,167.151861 345.555008,177.166868 345.555008,189.579832 L345.555008,234.77431 L316.368063,234.77431 L316.368063,187.210084 C316.368063,183.59904 315.208505,180.636856 312.889387,178.323529 C310.570268,176.010203 307.600666,174.853541 303.980581,174.853541 C300.473622,174.853541 297.560585,176.010203 295.241467,178.323529 C292.922348,180.636856 291.76279,183.59904 291.76279,187.210084 L291.76279,234.77431 L262.575846,234.77431 Z M187.238106,277.091236 L158.051161,277.091236 L158.051161,150.140456 L184.692733,150.140456 L184.692733,158.942377 C190.009734,151.720287 198.098364,148.109244 208.958623,148.109244 C220.83703,148.109244 230.594294,152.22809 238.230413,160.465786 C245.866532,168.703482 249.684592,179.310924 249.684592,192.288115 C249.684592,205.265307 245.866532,215.929173 238.230413,224.279712 C230.594294,232.630251 220.83703,236.805522 208.958623,236.805522 C200.021534,236.805522 192.781364,234.210085 187.238106,229.019208 L187.238106,277.091236 Z M203.18911,174.515006 C198.664002,174.515006 194.789379,176.038415 191.56524,179.085234 C188.341101,182.132053 186.729031,186.533013 186.729031,192.288115 C186.729031,198.043217 188.341101,202.500599 191.56524,205.660264 C194.789379,208.819929 198.664002,210.39976 203.18911,210.39976 C207.714219,210.39976 211.617124,208.819929 214.897827,205.660264 C218.178529,202.500599 219.818881,198.099639 219.818881,192.457383 C219.818881,186.815127 218.206812,182.414167 214.982672,179.254502 C211.758533,176.094837 207.827345,174.515006 203.18911,174.515006 Z M125.815072,282 C120.837454,282 116.595166,280.335535 113.088207,277.006603 C109.581247,273.67767 107.827769,269.587036 107.827769,264.734694 C107.827769,259.995198 109.581247,255.960985 113.088207,252.632053 C116.595166,249.30312 120.837454,247.638655 125.815072,247.638655 C130.79269,247.638655 135.006698,249.274911 138.457092,252.547419 C141.907485,255.819927 143.632684,259.882352 143.632684,264.734694 C143.632684,269.587036 141.907485,273.67767 138.457092,277.006603 C135.006698,280.335535 130.79269,282 125.815072,282 Z M111.051908,234.77431 L111.051908,150.140456 L140.238853,150.140456 L140.238853,234.77431 L111.051908,234.77431 Z M51.3257898,236.805522 C38.5423615,236.805522 27.6255375,232.545617 18.575323,224.02581 C9.52510854,215.506003 5,204.983193 5,192.457383 C5,179.931573 9.52510854,169.408763 18.575323,160.888956 C27.6255375,152.369149 38.5423615,148.109244 51.3257898,148.109244 C64.2223467,148.109244 75.1391681,152.369149 84.0762566,160.888956 C93.0133451,169.408763 97.4818881,179.931573 97.4818881,192.457383 C97.4818881,204.983193 93.0133451,215.506003 84.0762566,224.02581 C75.1391681,232.545617 64.2223467,236.805522 51.3257898,236.805522 Z M51.1560983,210.061224 C56.0205899,210.061224 59.9800582,208.424969 63.0345059,205.152461 C66.0889536,201.879953 67.6161774,197.64826 67.6161774,192.457383 C67.6161774,187.153662 66.0889536,182.893758 63.0345059,179.677671 C59.9800582,176.461585 56.0205899,174.853541 51.1560983,174.853541 C46.5178638,174.853541 42.6432386,176.489797 39.5322279,179.762305 C36.4212173,183.034813 34.8657106,187.266506 34.8657106,192.457383 C34.8657106,197.535414 36.4212173,201.738895 39.5322279,205.067827 C42.6432386,208.39676 46.5178638,210.061224 51.1560983,210.061224 Z" id="Combined-Shape"></path>
            </g>
        </g>
    </g>
</svg>
